<mxfile host="Electron" modified="2024-11-15T14:44:20.157Z" agent="Mozilla/5.0 (Windows NT 10.0; Win64; x64) AppleWebKit/537.36 (KHTML, like Gecko) draw.io/24.6.4 Chrome/124.0.6367.207 Electron/30.0.6 Safari/537.36" etag="12swH9v0T1JP5w9Ii4DM" version="24.6.4" type="device">
  <diagram name="PÃ¡gina-1" id="0XVBPAYQFIgWgaYY-hve">
    <mxGraphModel dx="2100" dy="1258" grid="0" gridSize="10" guides="1" tooltips="1" connect="1" arrows="1" fold="1" page="1" pageScale="1" pageWidth="1390" pageHeight="980" math="0" shadow="0">
      <root>
        <mxCell id="0" />
        <mxCell id="1" parent="0" />
        <mxCell id="W7bgL_GozD5dgxPRXH0D-1" value="" style="image;aspect=fixed;html=1;points=[];align=center;fontSize=12;image=img/lib/azure2/networking/Virtual_Networks.svg;" vertex="1" parent="1">
          <mxGeometry x="22" y="21" width="45.23" height="27" as="geometry" />
        </mxCell>
        <mxCell id="W7bgL_GozD5dgxPRXH0D-2" value="" style="whiteSpace=wrap;html=1;aspect=fixed;dashed=1;" vertex="1" parent="1">
          <mxGeometry x="7" y="72" width="272" height="272" as="geometry" />
        </mxCell>
        <mxCell id="W7bgL_GozD5dgxPRXH0D-4" value="" style="image;aspect=fixed;html=1;points=[];align=center;fontSize=12;image=img/lib/azure2/networking/Virtual_Networks.svg;" vertex="1" parent="1">
          <mxGeometry x="291" y="435" width="38.53" height="23" as="geometry" />
        </mxCell>
        <mxCell id="W7bgL_GozD5dgxPRXH0D-8" value="" style="rounded=0;whiteSpace=wrap;html=1;dashed=1;" vertex="1" parent="1">
          <mxGeometry x="138" y="468" width="667" height="353" as="geometry" />
        </mxCell>
        <mxCell id="W7bgL_GozD5dgxPRXH0D-9" value="" style="rounded=0;whiteSpace=wrap;html=1;dashed=1;" vertex="1" parent="1">
          <mxGeometry x="922" y="99" width="407" height="261" as="geometry" />
        </mxCell>
        <mxCell id="W7bgL_GozD5dgxPRXH0D-10" value="" style="rounded=0;whiteSpace=wrap;html=1;dashed=1;" vertex="1" parent="1">
          <mxGeometry x="931" y="632" width="407" height="261" as="geometry" />
        </mxCell>
        <mxCell id="W7bgL_GozD5dgxPRXH0D-11" value="" style="image;aspect=fixed;html=1;points=[];align=center;fontSize=12;image=img/lib/azure2/networking/Virtual_Networks.svg;" vertex="1" parent="1">
          <mxGeometry x="1181" y="584" width="45.23" height="27" as="geometry" />
        </mxCell>
        <mxCell id="W7bgL_GozD5dgxPRXH0D-12" value="" style="image;aspect=fixed;html=1;points=[];align=center;fontSize=12;image=img/lib/azure2/networking/Virtual_Networks.svg;" vertex="1" parent="1">
          <mxGeometry x="918" y="48" width="45.23" height="27" as="geometry" />
        </mxCell>
        <mxCell id="W7bgL_GozD5dgxPRXH0D-13" value="onprem-VNET 192.168.0.0/16" style="text;html=1;align=center;verticalAlign=middle;whiteSpace=wrap;rounded=0;" vertex="1" parent="1">
          <mxGeometry x="80" y="18" width="93" height="30" as="geometry" />
        </mxCell>
        <mxCell id="W7bgL_GozD5dgxPRXH0D-14" value="SPOKE2-VNET&lt;div&gt;10.2.0.0/16&lt;/div&gt;" style="text;html=1;align=center;verticalAlign=middle;whiteSpace=wrap;rounded=0;" vertex="1" parent="1">
          <mxGeometry x="1236" y="581" width="93" height="30" as="geometry" />
        </mxCell>
        <mxCell id="W7bgL_GozD5dgxPRXH0D-15" value="SPOKE1-VNET&lt;div&gt;10.1.0.0/16&lt;/div&gt;" style="text;html=1;align=center;verticalAlign=middle;whiteSpace=wrap;rounded=0;" vertex="1" parent="1">
          <mxGeometry x="977" y="48" width="93" height="30" as="geometry" />
        </mxCell>
        <mxCell id="W7bgL_GozD5dgxPRXH0D-16" value="HUB - VNET&lt;div&gt;10.0.0.0/16&lt;/div&gt;" style="text;html=1;align=center;verticalAlign=middle;whiteSpace=wrap;rounded=0;" vertex="1" parent="1">
          <mxGeometry x="339" y="428" width="93" height="30" as="geometry" />
        </mxCell>
        <mxCell id="W7bgL_GozD5dgxPRXH0D-20" value="" style="endArrow=classic;startArrow=classic;html=1;rounded=0;dashed=1;flowAnimation=1;" edge="1" parent="1">
          <mxGeometry width="50" height="50" relative="1" as="geometry">
            <mxPoint x="731" y="462" as="sourcePoint" />
            <mxPoint x="907" y="302" as="targetPoint" />
          </mxGeometry>
        </mxCell>
        <mxCell id="W7bgL_GozD5dgxPRXH0D-21" value="" style="rounded=0;whiteSpace=wrap;html=1;dashed=1;" vertex="1" parent="1">
          <mxGeometry x="206" y="522" width="198" height="114" as="geometry" />
        </mxCell>
        <mxCell id="W7bgL_GozD5dgxPRXH0D-22" value="" style="rounded=0;whiteSpace=wrap;html=1;dashed=1;" vertex="1" parent="1">
          <mxGeometry x="541" y="522" width="185" height="89" as="geometry" />
        </mxCell>
        <mxCell id="W7bgL_GozD5dgxPRXH0D-23" value="" style="rounded=0;whiteSpace=wrap;html=1;dashed=1;" vertex="1" parent="1">
          <mxGeometry x="212" y="679" width="189" height="133" as="geometry" />
        </mxCell>
        <mxCell id="W7bgL_GozD5dgxPRXH0D-24" value="SUBNET MGMT 10.0.0.64/27" style="text;html=1;align=center;verticalAlign=middle;whiteSpace=wrap;rounded=0;" vertex="1" parent="1">
          <mxGeometry x="530" y="485" width="120" height="30" as="geometry" />
        </mxCell>
        <mxCell id="W7bgL_GozD5dgxPRXH0D-25" value="" style="verticalLabelPosition=bottom;html=1;verticalAlign=top;align=center;strokeColor=none;fillColor=#00BEF2;shape=mxgraph.azure.virtual_machine;" vertex="1" parent="1">
          <mxGeometry x="552" y="533" width="49" height="44" as="geometry" />
        </mxCell>
        <mxCell id="W7bgL_GozD5dgxPRXH0D-26" value="" style="image;sketch=0;aspect=fixed;html=1;points=[];align=center;fontSize=12;image=img/lib/mscae/Azure_Firewall.svg;" vertex="1" parent="1">
          <mxGeometry x="269" y="701" width="50" height="50" as="geometry" />
        </mxCell>
        <mxCell id="W7bgL_GozD5dgxPRXH0D-27" value="SUBNET-DMZ&lt;div&gt;FIREWALL&amp;nbsp; IP 10.0.0.0..36&lt;/div&gt;" style="text;html=1;align=center;verticalAlign=middle;whiteSpace=wrap;rounded=0;" vertex="1" parent="1">
          <mxGeometry x="235" y="650" width="162" height="30" as="geometry" />
        </mxCell>
        <mxCell id="W7bgL_GozD5dgxPRXH0D-30" value="SUBNET-GW&amp;nbsp; 10.0.255.224/27&lt;div&gt;&lt;br&gt;&lt;/div&gt;" style="text;html=1;align=center;verticalAlign=middle;whiteSpace=wrap;rounded=0;" vertex="1" parent="1">
          <mxGeometry x="193" y="494" width="125" height="30" as="geometry" />
        </mxCell>
        <mxCell id="W7bgL_GozD5dgxPRXH0D-32" value="" style="image;aspect=fixed;html=1;points=[];align=center;fontSize=12;image=img/lib/azure2/networking/Virtual_Network_Gateways.svg;" vertex="1" parent="1">
          <mxGeometry x="214.53" y="528" width="36.93" height="49" as="geometry" />
        </mxCell>
        <mxCell id="W7bgL_GozD5dgxPRXH0D-33" value="" style="rounded=1;whiteSpace=wrap;html=1;dashed=1;" vertex="1" parent="1">
          <mxGeometry x="92" y="236" width="143" height="85" as="geometry" />
        </mxCell>
        <mxCell id="W7bgL_GozD5dgxPRXH0D-34" value="" style="rounded=1;whiteSpace=wrap;html=1;dashed=1;" vertex="1" parent="1">
          <mxGeometry x="95" y="108" width="120" height="60" as="geometry" />
        </mxCell>
        <mxCell id="W7bgL_GozD5dgxPRXH0D-35" value="SUBNET-GW&lt;div&gt;&amp;nbsp;192.168.255.224/27&lt;/div&gt;" style="text;html=1;align=center;verticalAlign=middle;whiteSpace=wrap;rounded=0;" vertex="1" parent="1">
          <mxGeometry x="91" y="201" width="120" height="30" as="geometry" />
        </mxCell>
        <mxCell id="W7bgL_GozD5dgxPRXH0D-36" value="" style="image;aspect=fixed;html=1;points=[];align=center;fontSize=12;image=img/lib/azure2/networking/Virtual_Network_Gateways.svg;" vertex="1" parent="1">
          <mxGeometry x="102" y="242" width="31.65" height="42" as="geometry" />
        </mxCell>
        <mxCell id="W7bgL_GozD5dgxPRXH0D-37" value="SUBNET-MGMT&lt;div&gt;192.168.0.0/16&lt;/div&gt;" style="text;html=1;align=center;verticalAlign=middle;whiteSpace=wrap;rounded=0;" vertex="1" parent="1">
          <mxGeometry x="95" y="78" width="121" height="30" as="geometry" />
        </mxCell>
        <mxCell id="W7bgL_GozD5dgxPRXH0D-40" value="" style="image;sketch=0;aspect=fixed;html=1;points=[];align=center;fontSize=12;image=img/lib/mscae/VM_Windows_Non_Azure.svg;" vertex="1" parent="1">
          <mxGeometry x="173" y="131" width="28.26" height="26" as="geometry" />
        </mxCell>
        <mxCell id="W7bgL_GozD5dgxPRXH0D-41" value="" style="image;sketch=0;aspect=fixed;html=1;points=[];align=center;fontSize=12;image=img/lib/mscae/VM_Windows_Non_Azure.svg;" vertex="1" parent="1">
          <mxGeometry x="105.38999999999999" y="131" width="28.26" height="26" as="geometry" />
        </mxCell>
        <mxCell id="W7bgL_GozD5dgxPRXH0D-42" value="&lt;b&gt;&lt;font style=&quot;font-size: 14px;&quot;&gt;VPN - GW&lt;/font&gt;&lt;/b&gt;" style="text;html=1;align=center;verticalAlign=middle;whiteSpace=wrap;rounded=0;" vertex="1" parent="1">
          <mxGeometry x="211" y="587" width="80" height="30" as="geometry" />
        </mxCell>
        <mxCell id="W7bgL_GozD5dgxPRXH0D-43" value="&lt;b&gt;&lt;font style=&quot;font-size: 14px;&quot;&gt;VPN - GW&lt;/font&gt;&lt;/b&gt;" style="text;html=1;align=center;verticalAlign=middle;whiteSpace=wrap;rounded=0;" vertex="1" parent="1">
          <mxGeometry x="93" y="291" width="80" height="30" as="geometry" />
        </mxCell>
        <mxCell id="W7bgL_GozD5dgxPRXH0D-44" value="" style="image;aspect=fixed;perimeter=ellipsePerimeter;html=1;align=center;shadow=0;dashed=0;spacingTop=3;image=img/lib/active_directory/tunnel.svg;rotation=-90;" vertex="1" parent="1">
          <mxGeometry x="152" y="394" width="117" height="23.4" as="geometry" />
        </mxCell>
        <mxCell id="W7bgL_GozD5dgxPRXH0D-45" value="&lt;font style=&quot;font-size: 14px;&quot;&gt;&lt;b&gt;VPN&lt;/b&gt;&lt;/font&gt;" style="text;html=1;align=center;verticalAlign=middle;whiteSpace=wrap;rounded=0;" vertex="1" parent="1">
          <mxGeometry x="141.26" y="385" width="60" height="30" as="geometry" />
        </mxCell>
        <mxCell id="W7bgL_GozD5dgxPRXH0D-46" value="" style="image;aspect=fixed;html=1;points=[];align=center;fontSize=12;image=img/lib/azure2/other/Peering_Service.svg;" vertex="1" parent="1">
          <mxGeometry x="780" y="337.31" width="47" height="47.69" as="geometry" />
        </mxCell>
        <mxCell id="W7bgL_GozD5dgxPRXH0D-47" value="&lt;font style=&quot;font-size: 14px;&quot;&gt;Peered through hub&lt;/font&gt;" style="text;html=1;align=center;verticalAlign=middle;whiteSpace=wrap;rounded=0;rotation=-45;" vertex="1" parent="1">
          <mxGeometry x="772" y="385" width="128" height="30" as="geometry" />
        </mxCell>
        <mxCell id="W7bgL_GozD5dgxPRXH0D-48" value="" style="endArrow=classic;startArrow=classic;html=1;rounded=0;dashed=1;flowAnimation=1;" edge="1" parent="1">
          <mxGeometry width="50" height="50" relative="1" as="geometry">
            <mxPoint x="827" y="524" as="sourcePoint" />
            <mxPoint x="943" y="627" as="targetPoint" />
          </mxGeometry>
        </mxCell>
        <mxCell id="W7bgL_GozD5dgxPRXH0D-49" value="" style="image;aspect=fixed;html=1;points=[];align=center;fontSize=12;image=img/lib/azure2/other/Peering_Service.svg;" vertex="1" parent="1">
          <mxGeometry x="839" y="566" width="47" height="47.69" as="geometry" />
        </mxCell>
        <mxCell id="W7bgL_GozD5dgxPRXH0D-50" value="&lt;font style=&quot;font-size: 14px;&quot;&gt;Peered through hub&lt;/font&gt;" style="text;html=1;align=center;verticalAlign=middle;whiteSpace=wrap;rounded=0;rotation=45;" vertex="1" parent="1">
          <mxGeometry x="833" y="540" width="128" height="30" as="geometry" />
        </mxCell>
        <mxCell id="W7bgL_GozD5dgxPRXH0D-51" value="" style="rounded=0;whiteSpace=wrap;html=1;dashed=1;" vertex="1" parent="1">
          <mxGeometry x="945" y="159.31" width="139" height="89" as="geometry" />
        </mxCell>
        <mxCell id="W7bgL_GozD5dgxPRXH0D-52" value="" style="rounded=0;whiteSpace=wrap;html=1;dashed=1;" vertex="1" parent="1">
          <mxGeometry x="1163" y="248.31" width="139" height="89" as="geometry" />
        </mxCell>
        <mxCell id="W7bgL_GozD5dgxPRXH0D-53" value="SUBNET - WORKLOAD 10.1.1.0/24" style="text;html=1;align=center;verticalAlign=middle;whiteSpace=wrap;rounded=0;" vertex="1" parent="1">
          <mxGeometry x="918" y="129.31" width="167" height="30" as="geometry" />
        </mxCell>
        <mxCell id="W7bgL_GozD5dgxPRXH0D-55" value="SUBNET-MGMT&lt;div&gt;10.1.0.64/27&lt;/div&gt;" style="text;html=1;align=center;verticalAlign=middle;whiteSpace=wrap;rounded=0;" vertex="1" parent="1">
          <mxGeometry x="1163" y="212" width="118.77" height="30" as="geometry" />
        </mxCell>
        <mxCell id="W7bgL_GozD5dgxPRXH0D-56" value="" style="sketch=0;outlineConnect=0;fontColor=#232F3E;gradientColor=none;fillColor=#8C4FFF;strokeColor=none;dashed=0;verticalLabelPosition=bottom;verticalAlign=top;align=center;html=1;fontSize=12;fontStyle=0;aspect=fixed;pointerEvents=1;shape=mxgraph.aws4.transit_gateway_attachment;" vertex="1" parent="1">
          <mxGeometry x="871" y="431" width="43" height="43" as="geometry" />
        </mxCell>
        <mxCell id="W7bgL_GozD5dgxPRXH0D-57" value="&lt;font style=&quot;font-size: 24px;&quot;&gt;REMOTE GATEWAY = FALSE&lt;/font&gt;" style="text;html=1;align=center;verticalAlign=middle;whiteSpace=wrap;rounded=0;" vertex="1" parent="1">
          <mxGeometry x="893" y="439" width="382" height="25" as="geometry" />
        </mxCell>
        <mxCell id="W7bgL_GozD5dgxPRXH0D-59" value="" style="image;aspect=fixed;html=1;points=[];align=center;fontSize=12;image=img/lib/azure2/databases/Azure_SQL_VM.svg;" vertex="1" parent="1">
          <mxGeometry x="986.24" y="177.31" width="56.53" height="53" as="geometry" />
        </mxCell>
        <mxCell id="W7bgL_GozD5dgxPRXH0D-61" value="" style="rounded=0;whiteSpace=wrap;html=1;dashed=1;" vertex="1" parent="1">
          <mxGeometry x="963" y="680" width="134" height="78" as="geometry" />
        </mxCell>
        <mxCell id="W7bgL_GozD5dgxPRXH0D-62" value="" style="rounded=0;whiteSpace=wrap;html=1;dashed=1;" vertex="1" parent="1">
          <mxGeometry x="1176" y="791" width="144" height="86" as="geometry" />
        </mxCell>
        <mxCell id="W7bgL_GozD5dgxPRXH0D-63" value="SUBNET-WORKLOAD&lt;div&gt;10.1.1.0/24&lt;/div&gt;" style="text;html=1;align=center;verticalAlign=middle;whiteSpace=wrap;rounded=0;" vertex="1" parent="1">
          <mxGeometry x="942" y="653" width="163" height="30" as="geometry" />
        </mxCell>
        <mxCell id="W7bgL_GozD5dgxPRXH0D-66" value="" style="image;aspect=fixed;html=1;points=[];align=center;fontSize=12;image=img/lib/azure2/databases/Azure_SQL_VM.svg;" vertex="1" parent="1">
          <mxGeometry x="991" y="692.5" width="56.53" height="53" as="geometry" />
        </mxCell>
        <mxCell id="W7bgL_GozD5dgxPRXH0D-68" value="" style="verticalLabelPosition=bottom;html=1;verticalAlign=top;align=center;strokeColor=none;fillColor=#00BEF2;shape=mxgraph.azure.virtual_machine;" vertex="1" parent="1">
          <mxGeometry x="1211" y="269" width="50" height="40" as="geometry" />
        </mxCell>
        <mxCell id="W7bgL_GozD5dgxPRXH0D-69" value="" style="verticalLabelPosition=bottom;html=1;verticalAlign=top;align=center;strokeColor=none;fillColor=#00BEF2;shape=mxgraph.azure.virtual_machine;" vertex="1" parent="1">
          <mxGeometry x="1223" y="821" width="50" height="40" as="geometry" />
        </mxCell>
        <mxCell id="W7bgL_GozD5dgxPRXH0D-72" value="SUBNET-MGMT&lt;div&gt;10.2.0.64/27&lt;/div&gt;" style="text;html=1;align=center;verticalAlign=middle;whiteSpace=wrap;rounded=0;" vertex="1" parent="1">
          <mxGeometry x="1181" y="748" width="118.77" height="30" as="geometry" />
        </mxCell>
        <mxCell id="W7bgL_GozD5dgxPRXH0D-73" value="" style="image;aspect=fixed;html=1;points=[];align=center;fontSize=12;image=img/lib/azure2/networking/Public_IP_Addresses.svg;" vertex="1" parent="1">
          <mxGeometry x="305.25" y="543" width="33.75" height="27" as="geometry" />
        </mxCell>
        <mxCell id="W7bgL_GozD5dgxPRXH0D-74" value="PIP" style="text;html=1;align=center;verticalAlign=middle;whiteSpace=wrap;rounded=0;" vertex="1" parent="1">
          <mxGeometry x="329.53" y="543" width="60" height="30" as="geometry" />
        </mxCell>
        <mxCell id="W7bgL_GozD5dgxPRXH0D-75" value="" style="image;aspect=fixed;html=1;points=[];align=center;fontSize=12;image=img/lib/azure2/networking/Public_IP_Addresses.svg;" vertex="1" parent="1">
          <mxGeometry x="153.13" y="252" width="36.25" height="29" as="geometry" />
        </mxCell>
        <mxCell id="W7bgL_GozD5dgxPRXH0D-76" value="PIP" style="text;html=1;align=center;verticalAlign=middle;whiteSpace=wrap;rounded=0;" vertex="1" parent="1">
          <mxGeometry x="172.99999999999997" y="254" width="60" height="30" as="geometry" />
        </mxCell>
        <mxCell id="W7bgL_GozD5dgxPRXH0D-77" value="" style="image;aspect=fixed;html=1;points=[];align=center;fontSize=12;image=img/lib/azure2/networking/Network_Security_Groups.svg;" vertex="1" parent="1">
          <mxGeometry x="695" y="586" width="32.94" height="40" as="geometry" />
        </mxCell>
        <mxCell id="W7bgL_GozD5dgxPRXH0D-78" value="" style="image;aspect=fixed;html=1;points=[];align=center;fontSize=12;image=img/lib/azure2/networking/Network_Security_Groups.svg;" vertex="1" parent="1">
          <mxGeometry x="1064.06" y="223" width="32.94" height="40" as="geometry" />
        </mxCell>
        <mxCell id="W7bgL_GozD5dgxPRXH0D-79" value="" style="image;aspect=fixed;html=1;points=[];align=center;fontSize=12;image=img/lib/azure2/networking/Network_Security_Groups.svg;" vertex="1" parent="1">
          <mxGeometry x="1287.06" y="315" width="32.94" height="40" as="geometry" />
        </mxCell>
        <mxCell id="W7bgL_GozD5dgxPRXH0D-80" value="" style="image;aspect=fixed;html=1;points=[];align=center;fontSize=12;image=img/lib/azure2/networking/Network_Security_Groups.svg;" vertex="1" parent="1">
          <mxGeometry x="1070" y="738" width="32.94" height="40" as="geometry" />
        </mxCell>
        <mxCell id="W7bgL_GozD5dgxPRXH0D-81" value="" style="image;aspect=fixed;html=1;points=[];align=center;fontSize=12;image=img/lib/azure2/networking/Network_Security_Groups.svg;" vertex="1" parent="1">
          <mxGeometry x="1296.06" y="850" width="32.94" height="40" as="geometry" />
        </mxCell>
        <mxCell id="W7bgL_GozD5dgxPRXH0D-93" style="edgeStyle=orthogonalEdgeStyle;rounded=0;orthogonalLoop=1;jettySize=auto;html=1;entryX=0;entryY=0.75;entryDx=0;entryDy=0;dashed=1;dashPattern=12 12;strokeColor=#0000CC;flowAnimation=1;" edge="1" parent="1" source="W7bgL_GozD5dgxPRXH0D-85" target="W7bgL_GozD5dgxPRXH0D-53">
          <mxGeometry relative="1" as="geometry">
            <mxPoint x="473" y="193" as="targetPoint" />
            <Array as="points">
              <mxPoint x="464" y="439" />
              <mxPoint x="695" y="439" />
              <mxPoint x="695" y="193" />
              <mxPoint x="918" y="193" />
            </Array>
          </mxGeometry>
        </mxCell>
        <mxCell id="W7bgL_GozD5dgxPRXH0D-94" value="Text" style="edgeLabel;html=1;align=center;verticalAlign=middle;resizable=0;points=[];" vertex="1" connectable="0" parent="W7bgL_GozD5dgxPRXH0D-93">
          <mxGeometry x="0.7778" y="-3" relative="1" as="geometry">
            <mxPoint as="offset" />
          </mxGeometry>
        </mxCell>
        <mxCell id="W7bgL_GozD5dgxPRXH0D-95" style="edgeStyle=orthogonalEdgeStyle;rounded=0;orthogonalLoop=1;jettySize=auto;html=1;entryX=0;entryY=0.75;entryDx=0;entryDy=0;dashed=1;dashPattern=12 12;strokeColor=#0000CC;flowAnimation=1;" edge="1" parent="1" source="W7bgL_GozD5dgxPRXH0D-85" target="W7bgL_GozD5dgxPRXH0D-10">
          <mxGeometry relative="1" as="geometry" />
        </mxCell>
        <mxCell id="W7bgL_GozD5dgxPRXH0D-85" value="" style="outlineConnect=0;dashed=0;verticalLabelPosition=bottom;verticalAlign=top;align=center;html=1;shape=mxgraph.aws3.route_table;fillColor=#F58536;gradientColor=none;" vertex="1" parent="1">
          <mxGeometry x="404" y="683" width="25" height="34" as="geometry" />
        </mxCell>
        <mxCell id="W7bgL_GozD5dgxPRXH0D-86" value="Text" style="text;html=1;align=center;verticalAlign=middle;whiteSpace=wrap;rounded=0;" vertex="1" parent="1">
          <mxGeometry x="698" y="460" width="60" height="30" as="geometry" />
        </mxCell>
        <mxCell id="W7bgL_GozD5dgxPRXH0D-87" value="Text" style="text;html=1;align=center;verticalAlign=middle;whiteSpace=wrap;rounded=0;" vertex="1" parent="1">
          <mxGeometry x="698" y="460" width="60" height="30" as="geometry" />
        </mxCell>
        <mxCell id="W7bgL_GozD5dgxPRXH0D-88" value="Text" style="text;html=1;align=center;verticalAlign=middle;whiteSpace=wrap;rounded=0;" vertex="1" parent="1">
          <mxGeometry x="698" y="460" width="60" height="30" as="geometry" />
        </mxCell>
        <mxCell id="W7bgL_GozD5dgxPRXH0D-90" value="ROUTE TABLE" style="text;html=1;align=center;verticalAlign=middle;whiteSpace=wrap;rounded=0;" vertex="1" parent="1">
          <mxGeometry x="486" y="680" width="93" height="30" as="geometry" />
        </mxCell>
        <mxCell id="W7bgL_GozD5dgxPRXH0D-97" value="ROUTE = tospok1" style="text;html=1;align=center;verticalAlign=middle;whiteSpace=wrap;rounded=0;" vertex="1" parent="1">
          <mxGeometry x="534" y="394" width="131" height="30" as="geometry" />
        </mxCell>
        <mxCell id="W7bgL_GozD5dgxPRXH0D-98" value="ROUTE = tospoke2&lt;div&gt;&lt;br&gt;&lt;/div&gt;" style="text;html=1;align=center;verticalAlign=middle;whiteSpace=wrap;rounded=0;" vertex="1" parent="1">
          <mxGeometry x="727.94" y="842" width="131" height="30" as="geometry" />
        </mxCell>
        <mxCell id="W7bgL_GozD5dgxPRXH0D-101" value="" style="image;aspect=fixed;html=1;points=[];align=center;fontSize=12;image=img/lib/azure2/networking/Network_Security_Groups.svg;" vertex="1" parent="1">
          <mxGeometry x="211" y="146" width="27.18" height="33" as="geometry" />
        </mxCell>
        <mxCell id="W7bgL_GozD5dgxPRXH0D-105" value="" style="verticalLabelPosition=bottom;html=1;verticalAlign=top;align=center;strokeColor=none;fillColor=#00BEF2;shape=mxgraph.azure.azure_subscription;" vertex="1" parent="1">
          <mxGeometry x="10" y="844" width="173" height="123" as="geometry" />
        </mxCell>
      </root>
    </mxGraphModel>
  </diagram>
</mxfile>
